<?xml version="1.0" encoding="UTF-8"?>
<svg xmlns="http://www.w3.org/2000/svg" viewBox="0 0 512 512" width="512" height="512">
  <defs>
    <linearGradient id="favGrad" x1="0" y1="0" x2="512" y2="512" gradientUnits="userSpaceOnUse">
      <stop offset="0%" stop-color="#18181b"/>
      <stop offset="50%" stop-color="#3d3d99"/>
      <stop offset="100%" stop-color="#6366f1"/>
    </linearGradient>
    <linearGradient id="favGradBg" x1="0" y1="0" x2="512" y2="512" gradientUnits="userSpaceOnUse">
      <stop offset="0%" stop-color="#f8f8fc"/>
      <stop offset="100%" stop-color="#f0f0ff"/>
    </linearGradient>
  </defs>
  <!-- Rounded square background -->
  <rect width="512" height="512" rx="96" fill="url(#favGradBg)"/>
  <!-- Stylized R letterform -->
  <g transform="translate(110, 80)">
    <path d="
      M 40 0
      L 40 352
      L 85 352
      L 85 195
      L 155 195
      L 230 352
      L 282 352
      L 200 188
      C 245 172 272 136 272 92
      C 272 36 228 0 165 0
      Z
      M 85 45
      L 160 45
      C 205 45 227 65 227 92
      C 227 120 205 148 160 148
      L 85 148
      Z
    " fill="url(#favGrad)"/>
  </g>
</svg>