<svg width="32" height="32" viewBox="0 0 32 32" fill="none" xmlns="http://www.w3.org/2000/svg">
  <path d="M3.344 18.544a13.1 13.1 0 0 1-.328-2.218L13.674 27a13.1 13.1 0 0 1-2.218-.328L3.344 18.544ZM2.656 15.104a13.3 13.3 0 0 1 .296-1.896l13.84 13.84a13.3 13.3 0 0 1-1.896.296L2.656 15.104ZM4.28 11.508a13.1 13.1 0 0 1 .776-1.652l16.772 16.772a13.1 13.1 0 0 1-1.652.776L4.28 11.508ZM6.296 8.592a13.1 13.1 0 0 1 1.16-1.28l17.232 17.232c-.4.448-.832.872-1.28 1.16L6.296 8.592ZM8.888 6.04a13 13 0 0 1 1.56-.96l16.472 16.472a13 13 0 0 1-.96 1.56L8.888 6.04ZM12.14 4.088a13.1 13.1 0 0 1 1.928-.652l14.496 14.496a13.1 13.1 0 0 1-.652 1.928L12.14 4.088ZM15.804 2.732c.68-.132 1.376-.216 2.088-.248l11.624 11.624a13.2 13.2 0 0 1-.248 2.088L15.804 2.732ZM19.608 2.696a13.1 13.1 0 0 1 2.808.488L28.816 9.6a13.1 13.1 0 0 1 .488 2.808l-9.696-9.712ZM24.264 4.204a13 13 0 0 1 3.524 3.536l-3.524-3.536Z" fill="#5E6AD2"/>
</svg>
