<svg width="32" height="32" viewBox="0 0 32 32" fill="none" xmlns="http://www.w3.org/2000/svg">
  <circle cx="6.5" cy="22" r="3.5" fill="#FF3D57"/>
  <circle cx="16" cy="22" r="3.5" fill="#FFCB00"/>
  <circle cx="25.5" cy="22" r="3.5" fill="#00D647"/>
  <path d="M3 10c0 0 1 8 3.5 12C4.5 18 3 10 3 10Z" fill="#FF3D57"/>
  <path d="M6.5 10c0 0 2.5 6.5 3 12-1.5-3.5-3-12-3-12Z" fill="#FF3D57"/>
  <path d="M12.5 10c0 0 1 8 3.5 12C14 18 12.5 10 12.5 10Z" fill="#FFCB00"/>
  <path d="M16 10c0 0 2.5 6.5 3 12-1.5-3.5-3-12-3-12Z" fill="#FFCB00"/>
  <path d="M22 10c0 0 1 8 3.5 12C23.5 18 22 10 22 10Z" fill="#00D647"/>
  <path d="M25.5 10c0 0 2.5 6.5 3 12-1.5-3.5-3-12-3-12Z" fill="#00D647"/>
</svg>
