<svg xmlns="http://www.w3.org/2000/svg" viewBox="0 0 120 120" fill="none">
  <rect width="120" height="120" rx="24" fill="#10A37F"/>
  <path d="M87.12 51.05a15.24 15.24 0 0 0-1.31-12.54 15.42 15.42 0 0 0-16.62-7.35A15.24 15.24 0 0 0 57.7 25a15.42 15.42 0 0 0-14.7 10.72 15.24 15.24 0 0 0-10.19 7.39 15.42 15.42 0 0 0 1.9 18.09 15.24 15.24 0 0 0 1.31 12.54 15.42 15.42 0 0 0 16.62 7.35A15.24 15.24 0 0 0 64.13 87.25a15.42 15.42 0 0 0 14.7-10.72 15.24 15.24 0 0 0 10.19-7.39 15.42 15.42 0 0 0-1.9-18.09zM64.13 83.5a11.47 11.47 0 0 1-7.37-2.68l.37-.21 12.23-7.06a2 2 0 0 0 1-1.73V56.49l5.17 2.98a.18.18 0 0 1 .1.14v14.3a11.52 11.52 0 0 1-11.5 9.59zM36.87 72.12a11.47 11.47 0 0 1-1.37-7.71l.37.22 12.23 7.06a2 2 0 0 0 2 0l14.93-8.62v5.97a.18.18 0 0 1-.07.16l-12.37 7.14a11.52 11.52 0 0 1-15.72-4.22zM33.25 47.38A11.47 11.47 0 0 1 39.24 42v.43V56.9a2 2 0 0 0 1 1.73l14.93 8.62-5.17 2.98a.18.18 0 0 1-.17 0l-12.37-7.14a11.52 11.52 0 0 1-4.21-15.71zM79.38 59.37 64.45 50.75l5.17-2.98a.18.18 0 0 1 .17 0l12.37 7.14a11.52 11.52 0 0 1-1.78 20.81v-14.9a2 2 0 0 0-1-1.45zM84.5 47.59l-.37-.22-12.23-7.06a2 2 0 0 0-2 0L55 48.93v-5.97a.18.18 0 0 1 .07-.16l12.37-7.14a11.52 11.52 0 0 1 17.06 11.93zM51.43 63.51l-5.17-2.98a.18.18 0 0 1-.1-.14V46.09A11.52 11.52 0 0 1 65.05 36l-.37.21-12.23 7.06a2 2 0 0 0-1 1.73v15.51z" fill="#fff"/>
</svg>
